<?xml version="1.0" standalone="no"?>
<!DOCTYPE svg PUBLIC "-//W3C//DTD SVG 20010904//EN"
 "http://www.w3.org/TR/2001/REC-SVG-20010904/DTD/svg10.dtd">
<svg version="1.0" xmlns="http://www.w3.org/2000/svg"
 width="2000.000000pt" height="2000.000000pt" viewBox="0 0 2000.000000 2000.000000"
 preserveAspectRatio="xMidYMid meet">
<metadata>
Created by potrace 1.14, written by Peter Selinger 2001-2017
</metadata>
<g transform="translate(0.000000,2000.000000) scale(0.100000,-0.100000)"
fill="#000000" stroke="none">
<path d="M3549 17326 c-2 -2 -44 -6 -94 -10 -49 -3 -99 -8 -110 -10 -11 -2
-54 -10 -95 -17 -41 -7 -77 -13 -80 -14 -3 -1 -21 -5 -40 -9 -568 -127 -1022
-473 -1190 -909 -30 -77 -76 -254 -68 -262 13 -13 278 113 368 175 22 15 202
123 255 152 91 52 243 113 254 103 5 -6 -31 -126 -56 -185 -69 -163 -159 -315
-317 -533 -192 -267 -308 -468 -354 -613 -23 -71 -48 -210 -67 -374 -27 -232
-56 -326 -167 -540 -244 -469 -310 -610 -354 -765 -23 -77 -26 -93 -49 -220
-7 -39 -8 -236 -1 -266 3 -13 8 -41 11 -62 18 -131 84 -298 163 -413 85 -125
225 -244 413 -352 108 -62 164 -90 448 -219 243 -110 431 -209 506 -266 6 -4
37 -28 70 -52 138 -105 257 -242 333 -386 55 -103 77 -172 98 -304 8 -48 7
-321 -1 -420 -11 -134 -13 -396 -3 -467 16 -121 65 -288 145 -498 24 -63 67
-178 94 -255 28 -77 54 -147 59 -156 11 -21 67 -250 75 -309 4 -24 8 -47 10
-50 1 -3 6 -36 10 -73 3 -37 8 -76 10 -85 1 -9 6 -55 10 -102 3 -47 8 -101 10
-120 2 -19 6 -82 10 -140 4 -58 8 -121 10 -140 2 -19 6 -71 9 -115 4 -44 9
-91 11 -105 2 -14 6 -52 10 -85 12 -109 34 -230 66 -358 32 -128 145 -483 179
-562 5 -11 36 -94 70 -185 34 -91 94 -248 132 -350 208 -546 278 -798 283
-1013 8 -325 -123 -538 -512 -835 -235 -179 -339 -285 -388 -395 -31 -70 -36
-129 -18 -192 40 -133 166 -220 388 -266 50 -10 113 -21 140 -24 28 -3 61 -7
75 -10 14 -2 50 -7 80 -10 30 -4 82 -10 115 -15 33 -5 89 -12 125 -15 36 -3
103 -9 150 -14 98 -9 343 -7 410 3 291 44 482 167 612 391 59 103 112 260 132
395 23 156 27 222 25 460 -1 118 -2 812 -3 1543 -1 1060 1 1326 11 1322 36
-13 343 -205 594 -370 156 -104 336 -221 400 -261 380 -238 715 -391 1004
-459 160 -38 151 -37 795 -50 140 -3 269 -7 285 -9 114 -17 124 -19 220 -45
198 -55 345 -172 429 -342 70 -142 83 -220 85 -524 3 -290 6 -342 26 -505 23
-185 36 -277 40 -298 12 -62 20 -217 20 -372 0 -195 -8 -261 -42 -380 -44
-153 -87 -215 -305 -435 -87 -89 -177 -185 -200 -215 -143 -190 -137 -349 22
-522 92 -101 210 -172 365 -221 81 -25 110 -32 200 -43 28 -3 61 -8 75 -10 33
-6 254 -5 305 1 55 6 123 16 145 20 9 2 35 6 56 9 22 4 73 16 114 27 41 11 82
22 90 24 84 19 317 135 403 200 77 59 142 136 184 218 33 62 68 159 77 209 29
171 29 172 27 723 0 138 2 302 4 365 8 240 17 426 20 460 2 19 6 105 10 190 7
161 9 204 19 380 20 342 26 522 31 915 4 296 8 412 20 540 4 51 16 139 20 155
2 8 7 30 10 47 12 71 59 203 103 287 81 154 225 279 387 335 86 29 120 35 210
35 89 1 135 -17 200 -76 29 -26 115 -147 115 -161 0 -3 10 -26 22 -53 12 -27
23 -51 23 -54 0 -3 13 -41 28 -86 15 -44 30 -89 32 -100 3 -10 14 -57 25 -104
129 -527 -10 -877 -505 -1272 -195 -156 -261 -241 -272 -354 -21 -198 120
-316 475 -398 117 -27 152 -35 182 -40 19 -3 44 -7 55 -10 27 -5 90 -15 145
-22 97 -12 332 -11 413 3 291 50 464 198 557 476 31 91 62 252 85 442 6 45 14
98 30 195 4 19 8 46 10 60 3 21 13 80 41 225 2 11 8 43 14 70 5 28 12 66 15
85 3 19 14 82 25 140 11 58 22 121 25 140 3 19 10 62 16 95 6 33 13 73 15 88
7 57 15 113 20 147 20 136 29 295 29 495 0 183 -8 323 -20 357 -2 7 -6 24 -9
38 -7 40 -42 159 -65 225 -12 33 -24 67 -26 75 -2 8 -25 75 -50 149 -74 219
-97 332 -97 471 1 94 23 182 66 254 54 93 203 200 314 224 64 15 199 6 262
-16 143 -50 285 -140 463 -292 255 -218 876 -857 1114 -1146 227 -274 453
-590 598 -836 31 -52 81 -138 98 -168 34 -61 167 -329 167 -337 0 -4 7 -21 16
-38 64 -120 186 -493 220 -670 2 -11 8 -42 13 -70 30 -154 37 -264 20 -341 -7
-32 -13 -64 -15 -70 -10 -56 -58 -178 -169 -439 -137 -318 -160 -397 -160
-540 0 -100 2 -115 27 -161 46 -87 126 -145 263 -192 60 -20 99 -30 145 -38
14 -3 48 -9 75 -14 46 -8 127 -20 245 -35 25 -3 52 -8 60 -10 15 -4 73 -10
230 -23 221 -20 435 10 571 79 77 38 177 135 213 206 31 63 73 189 80 241 3
20 8 62 12 92 14 100 6 481 -11 550 -2 8 -6 42 -10 75 -3 33 -8 67 -10 75 -2
8 -6 38 -10 65 -3 28 -8 61 -10 75 -6 35 -35 210 -40 240 -12 65 -50 307 -60
380 -11 79 -55 291 -91 440 -56 228 -111 417 -284 975 -151 488 -254 887 -285
1100 -3 23 -7 50 -9 60 -2 11 -7 52 -11 90 -4 39 -9 78 -11 87 -1 9 -5 49 -8
90 -4 40 -8 98 -11 128 -3 30 -7 89 -10 130 -3 41 -8 95 -10 120 -2 25 -7 77
-10 115 -8 95 -14 163 -20 205 -10 80 -18 136 -21 155 -3 11 -7 38 -10 60 -3
22 -12 68 -20 103 -7 34 -16 76 -19 94 -3 17 -14 59 -24 92 -10 34 -32 106
-49 161 -46 150 -166 479 -301 820 -16 39 -70 198 -120 355 -228 701 -264 809
-316 941 -97 243 -208 456 -360 689 -57 86 -208 303 -239 341 -12 14 -32 41
-46 59 -60 81 -307 381 -375 456 -5 6 -39 44 -75 85 -104 118 -332 372 -358
399 -13 14 -100 117 -194 230 -332 398 -506 544 -778 649 -47 18 -94 37 -105
41 -29 13 -191 56 -255 69 -94 19 -104 21 -150 27 -25 3 -52 7 -60 9 -101 26
-657 26 -850 0 -14 -1 -50 -6 -80 -10 -30 -3 -104 -15 -165 -25 -60 -11 -126
-22 -145 -25 -19 -3 -53 -11 -75 -17 -22 -5 -51 -12 -65 -15 -113 -20 -503
-147 -635 -208 -16 -7 -64 -27 -105 -43 -41 -17 -125 -53 -187 -80 -62 -27
-114 -47 -117 -44 -4 3 -6 0 -6 -6 0 -7 -5 -12 -11 -12 -10 0 -162 -63 -354
-145 -238 -103 -693 -252 -825 -271 -19 -2 -55 -9 -80 -14 -139 -31 -390 -43
-545 -27 -38 4 -114 17 -169 28 -366 74 -623 263 -788 579 -61 115 -90 190
-205 515 -134 381 -253 594 -432 775 -138 139 -214 186 -342 213 -35 7 -98 12
-139 11 -80 -1 -102 -4 -310 -33 -67 -9 -282 -7 -335 4 -98 20 -218 54 -463
129 -100 31 -197 58 -215 61 -17 3 -48 10 -67 15 -19 5 -46 11 -60 14 -14 3
-47 9 -75 15 -27 5 -68 12 -90 15 -23 4 -52 9 -65 11 -29 6 -86 16 -115 20
-16 2 -107 15 -220 30 -50 7 -119 15 -162 20 -27 3 -63 8 -81 11 -18 2 -54 6
-80 9 -64 7 -116 14 -187 25 -33 5 -78 12 -100 15 -78 10 -220 41 -365 80
-526 141 -599 154 -876 160 -94 2 -173 3 -175 1z"/>
</g>
</svg>
